<svg xmlns="http://www.w3.org/2000/svg" xmlns:xlink="http://www.w3.org/1999/xlink" contentStyleType="text/css" height="286px" preserveAspectRatio="none" style="width:114px;height:286px;background:#FFFFFF;" version="1.1" viewBox="0 0 114 286" width="114px" zoomAndPan="magnify"><defs/><g><ellipse cx="57" cy="20" fill="#222222" rx="10" ry="10" style="stroke:#222222;stroke-width:1.0;"/><rect fill="#F1F1F1" height="47.9375" rx="12.5" ry="12.5" style="stroke:#181818;stroke-width:0.5;" width="92" x="11" y="50"/><text fill="#000000" font-family="sans-serif" font-size="12" lengthAdjust="spacing" textLength="72" x="21" y="71.1387">&#25968;&#25454;&#21327;&#35758;&#35299;&#26512;</text><text fill="#000000" font-family="sans-serif" font-size="12" lengthAdjust="spacing" textLength="72" x="21" y="85.1074">&#65288;&#29420;&#31435;&#32447;&#31243;&#65289;</text><rect fill="#F1F1F1" height="47.9375" rx="12.5" ry="12.5" style="stroke:#181818;stroke-width:0.5;" width="92" x="11" y="117.9375"/><text fill="#000000" font-family="sans-serif" font-size="12" lengthAdjust="spacing" textLength="36" x="21" y="139.0762">&#21518;&#22788;&#29702;</text><text fill="#000000" font-family="sans-serif" font-size="12" lengthAdjust="spacing" textLength="72" x="21" y="153.0449">&#65288;&#29420;&#31435;&#32447;&#31243;&#65289;</text><rect fill="#F1F1F1" height="47.9375" rx="12.5" ry="12.5" style="stroke:#181818;stroke-width:0.5;" width="80" x="17" y="185.875"/><text fill="#000000" font-family="sans-serif" font-size="12" lengthAdjust="spacing" textLength="48" x="27" y="207.0137">&#30028;&#38754;&#28210;&#26579;</text><text fill="#000000" font-family="sans-serif" font-size="12" lengthAdjust="spacing" textLength="60" x="27" y="220.9824">&#65288;&#20027;&#32447;&#31243;&#65289;</text><ellipse cx="57" cy="264.8125" fill="none" rx="11" ry="11" style="stroke:#222222;stroke-width:1.0;"/><ellipse cx="57" cy="264.8125" fill="#222222" rx="6" ry="6" style="stroke:#222222;stroke-width:1.0;"/><line style="stroke:#181818;stroke-width:1.0;" x1="57" x2="57" y1="30" y2="50"/><polygon fill="#181818" points="53,40,57,50,61,40,57,44" style="stroke:#181818;stroke-width:1.0;"/><line style="stroke:#181818;stroke-width:1.0;" x1="57" x2="57" y1="97.9375" y2="117.9375"/><polygon fill="#181818" points="53,107.9375,57,117.9375,61,107.9375,57,111.9375" style="stroke:#181818;stroke-width:1.0;"/><line style="stroke:#181818;stroke-width:1.0;" x1="57" x2="57" y1="165.875" y2="185.875"/><polygon fill="#181818" points="53,175.875,57,185.875,61,175.875,57,179.875" style="stroke:#181818;stroke-width:1.0;"/><line style="stroke:#181818;stroke-width:1.0;" x1="57" x2="57" y1="233.8125" y2="253.8125"/><polygon fill="#181818" points="53,243.8125,57,253.8125,61,243.8125,57,247.8125" style="stroke:#181818;stroke-width:1.0;"/><!--SRC=[Aov9B2hXuh9wDdN3izvrJtlxNwnRzsBvucVp9d2ztzFnl7lDyzNTptVjVxwY-_sUJckWmgSJ-fukQNa-eGs7_FEfFI_dBdgsOzEp-PD1Ifxis8qiNroINm00]--></g></svg>